<svg width="48" height="48" viewBox="0 0 48 48" fill="none" xmlns="http://www.w3.org/2000/svg">
<circle cx="24" cy="24" r="23.5" fill="white" stroke="#333F48"/>
<path d="M23.409 31C23.409 31.2761 23.6328 31.5 23.909 31.5C24.1851 31.5 24.409 31.2761 24.409 31L23.409 31ZM32.0947 18.4643C32.3511 18.3617 32.4758 18.0707 32.3732 17.8143C32.2707 17.5579 31.9797 17.4332 31.7233 17.5358L32.0947 18.4643ZM24.409 31C24.409 25.8514 27.2346 20.4083 32.0947 18.4643L31.7233 17.5358C26.3892 19.6695 23.409 25.5546 23.409 31L24.409 31Z" fill="#333F48"/>
<path d="M35.4091 13L35.8673 12.7998C35.7877 12.6177 35.6079 12.5 35.4091 12.5V13ZM22.4091 34L21.9509 34.2002C22.0305 34.3823 22.2104 34.5 22.4091 34.5V34ZM21.4091 28C21.4091 19.9694 27.4229 13.5 35.4091 13.5V12.5C26.8268 12.5 20.4091 19.4621 20.4091 28H21.4091ZM22.8673 33.7998C22.073 31.9818 21.4091 30.0289 21.4091 28H20.4091C20.4091 30.2377 21.1397 32.3434 21.9509 34.2002L22.8673 33.7998ZM36.4091 19C36.4091 27.0306 30.3953 33.5 22.4091 33.5V34.5C30.9915 34.5 37.4091 27.5379 37.4091 19H36.4091ZM34.9509 13.2002C35.7452 15.0182 36.4091 16.9711 36.4091 19H37.4091C37.4091 16.7623 36.6786 14.6566 35.8673 12.7998L34.9509 13.2002Z" fill="#333F48"/>
<path d="M20.1664 20.5713C20.4032 20.7133 20.4799 21.0205 20.3379 21.2572C20.1958 21.494 19.8887 21.5708 19.6519 21.4287L20.1664 20.5713ZM13.0341 19L12.5797 18.7915L12.7134 18.5H13.0341V19ZM19.9894 33.0065C20.262 33.0508 20.447 33.3077 20.4026 33.5803C20.3583 33.8528 20.1014 34.0379 19.8288 33.9935L19.9894 33.0065ZM19.6519 21.4287C18.4111 20.6843 17.4928 20.2101 16.5256 19.9159C15.5626 19.6229 14.5226 19.5 13.0341 19.5V18.5C14.5778 18.5 15.7252 18.6271 16.8167 18.9591C17.904 19.2899 18.9071 19.8157 20.1664 20.5713L19.6519 21.4287ZM13.4886 19.2085C12.1991 22.0194 12.1965 25.2156 13.3325 27.8335C14.4638 30.4408 16.7219 32.4749 19.9894 33.0065L19.8288 33.9935C16.1978 33.4028 13.6706 31.1248 12.4151 28.2316C11.1643 25.349 11.1736 21.8564 12.5797 18.7915L13.4886 19.2085Z" fill="#333F48"/>
</svg>
