<svg width="48" height="48" viewBox="0 0 48 48" fill="none" xmlns="http://www.w3.org/2000/svg">
<circle cx="24" cy="24" r="23.5" fill="white" stroke="#333F48"/>
<path d="M27.4852 38.799L27.8387 39.1525L27.4852 38.799ZM38.7989 27.4853L38.4453 27.1317L38.7989 27.4853ZM33.142 21.8284L33.4956 22.182L33.142 21.8284ZM21.8283 33.1421L21.4748 32.7886L21.8283 33.1421ZM30.3136 26.7781C30.1183 26.9734 30.1183 27.29 30.3136 27.4853C30.5088 27.6805 30.8254 27.6805 31.0207 27.4853L30.3136 26.7781ZM34.5562 23.9497C34.7515 23.7545 34.7515 23.4379 34.5562 23.2426C34.3609 23.0474 34.0444 23.0474 33.8491 23.2426L34.5562 23.9497ZM22.1819 33.4957L33.4956 22.182L32.7885 21.4749L21.4748 32.7886L22.1819 33.4957ZM38.4453 27.1317L27.1316 38.4454L27.8387 39.1525L39.1524 27.8388L38.4453 27.1317ZM27.1316 38.4454C25.7648 39.8123 23.5487 39.8123 22.1819 38.4454L21.4748 39.1525C23.2321 40.9099 26.0814 40.9099 27.8387 39.1525L27.1316 38.4454ZM38.4453 22.182C39.8122 23.5488 39.8122 25.7649 38.4453 27.1317L39.1524 27.8388C40.9098 26.0815 40.9098 23.2322 39.1524 21.4749L38.4453 22.182ZM33.4956 22.182C34.8624 20.8152 37.0785 20.8152 38.4453 22.182L39.1524 21.4749C37.3951 19.7175 34.5458 19.7175 32.7885 21.4749L33.4956 22.182ZM21.4748 32.7886C19.7174 34.5459 19.7174 37.3952 21.4748 39.1525L22.1819 38.4454C20.815 37.0786 20.815 34.8625 22.1819 33.4957L21.4748 32.7886ZM27.1316 27.8389L32.7885 33.4957L33.4956 32.7886L27.8387 27.1318L27.1316 27.8389ZM31.0207 27.4853L34.5562 23.9497L33.8491 23.2426L30.3136 26.7781L31.0207 27.4853Z" fill="#333F48"/>
<path d="M22.0313 16.9054C23.0542 18.4292 24.4396 21.473 25.3213 24.4904M30.3972 19.4145C29.7994 14.173 26.0728 9.0667 18.125 7C13.0306 15.1504 16.486 24.2805 21.0646 28.7471C20.25 27.9524 19.4709 27.0101 18.7692 25.9519C17.0843 25.034 14.7394 23.9385 11.8751 23.0616M16.2373 20.3788C13.0189 18.994 8.99965 18.8567 7 21.2491C9.08641 27.7222 14.7444 30.3031 21.0344 28.7176" stroke="#333F48" stroke-linecap="round"/>
</svg>
